<?xml version="1.0" encoding="utf-8"?>
<!-- Generator: Adobe Illustrator 17.1.0, SVG Export Plug-In . SVG Version: 6.00 Build 0)  -->
<!DOCTYPE svg PUBLIC "-//W3C//DTD SVG 1.1//EN" "http://www.w3.org/Graphics/SVG/1.1/DTD/svg11.dtd">
<svg version="1.1" xmlns="http://www.w3.org/2000/svg" xmlns:xlink="http://www.w3.org/1999/xlink" x="0px" y="0px"
	 viewBox="0 0 512 512" enable-background="new 0 0 512 512" xml:space="preserve">
<g id="Capa_1">
	<circle fill="#13C3EC" cx="256.4" cy="255.8" r="253.5"/>
	<g>
		<g>
			<defs>
				<rect id="SVGID_1_" x="106" y="106.9" width="301" height="301"/>
			</defs>
			<clipPath id="SVGID_2_">
				<use xlink:href="#SVGID_1_"  overflow="visible"/>
			</clipPath>
			<path clip-path="url(#SVGID_2_)" fill="#FFFFFF" d="M406.5,344c0.6,4.9-0.9,9.1-4.5,12.7l-42.3,42c-1.9,2.1-4.4,3.9-7.5,5.4
				c-3.1,1.5-6.1,2.4-9.1,2.9c-0.2,0-0.9,0.1-1.9,0.2c-1.1,0.1-2.4,0.2-4.1,0.2c-4,0-10.6-0.7-19.6-2.1c-9-1.4-20.1-4.8-33.1-10.2
				c-13.1-5.4-27.9-13.5-44.4-24.3c-16.5-10.8-34.2-25.7-52.8-44.6c-14.9-14.6-27.2-28.6-36.9-42c-9.8-13.4-17.6-25.7-23.6-37.1
				c-5.9-11.4-10.4-21.6-13.4-30.9c-3-9.2-5-17.2-6-23.9c-1.1-6.7-1.5-11.9-1.3-15.8c0.2-3.8,0.3-5.9,0.3-6.4c0.4-3,1.4-6,2.9-9.1
				c1.5-3.1,3.3-5.6,5.4-7.5l42.3-42.3c3-3,6.4-4.5,10.2-4.5c2.8,0,5.2,0.8,7.3,2.4c2.1,1.6,3.9,3.6,5.4,5.9l34.1,64.6
				c1.9,3.4,2.4,7.1,1.6,11.1c-0.8,4-2.7,7.4-5.4,10.2l-15.6,15.6c-0.4,0.4-0.8,1.1-1.1,2.1c-0.3,1-0.5,1.8-0.5,2.4
				c0.8,4.5,2.8,9.5,5.7,15.3c2.5,5.1,6.5,11.3,11.8,18.6c5.3,7.3,12.8,15.8,22.6,25.3c9.5,9.8,18,17.3,25.5,22.8
				c7.4,5.4,13.6,9.4,18.6,11.9c5,2.5,8.8,4.1,11.5,4.6l4,0.8c0.4,0,1.1-0.2,2.1-0.5c1-0.3,1.6-0.7,2.1-1.1l18.1-18.5
				c3.8-3.4,8.3-5.1,13.4-5.1c3.6,0,6.5,0.6,8.6,1.9h0.3l61.4,36.3C403,336.3,405.7,339.8,406.5,344L406.5,344z M406.5,344"/>
		</g>
	</g>
</g>
<g id="Layer_2">
</g>
</svg>
