<?xml version="1.0" encoding="utf-8"?>
<!-- Generator: Adobe Illustrator 17.1.0, SVG Export Plug-In . SVG Version: 6.00 Build 0)  -->
<!DOCTYPE svg PUBLIC "-//W3C//DTD SVG 1.1//EN" "http://www.w3.org/Graphics/SVG/1.1/DTD/svg11.dtd">
<svg version="1.1" xmlns="http://www.w3.org/2000/svg" xmlns:xlink="http://www.w3.org/1999/xlink" x="0px" y="0px"
	 viewBox="0 0 512 512" enable-background="new 0 0 512 512" xml:space="preserve">
<g id="Capa_1">
	<circle fill="#1BD741" cx="256.4" cy="255.8" r="253.5"/>
	<g>
		<path fill="#FFFFFF" d="M99.5,413l21.9-77.8C107.4,311.2,99.9,284,99.9,256c0-86.2,70.1-156.3,156.3-156.3S412.5,169.9,412.5,256
			c0,86.2-70.1,156.3-156.3,156.3c-26.8,0-53.1-6.9-76.4-19.9L99.5,413z M183.9,363.9l4.8,2.9c20.3,12.4,43.6,18.9,67.5,18.9
			c71.5,0,129.7-58.2,129.7-129.7c0-71.5-58.2-129.7-129.7-129.7S126.5,184.5,126.5,256c0,24.9,7.1,49.1,20.5,70l3.2,5l-12.6,44.8
			L183.9,363.9z M183.9,363.9"/>
		<path fill="#FFFFFF" d="M212.3,183.3l-10.1-0.6c-3.2-0.2-6.3,0.9-8.7,3c-4.9,4.3-12.8,12.5-15.2,23.3c-3.6,16,2,35.7,16.4,55.3
			c14.4,19.6,41.2,51,88.7,64.5c15.3,4.3,27.3,1.4,36.6-4.5c7.4-4.7,12.4-12.2,14.2-20.8l1.6-7.6c0.5-2.4-0.7-4.8-2.9-5.9
			l-34.3-15.8c-2.2-1-4.9-0.4-6.4,1.6l-13.5,17.4c-1,1.3-2.7,1.7-4.3,1.3c-14.4-4.1-41.3-16.4-57-48.8c-0.7-1.4-0.6-3.1,0.5-4.3
			l12.9-14.9c1.3-1.5,1.6-3.7,0.9-5.5l-14.8-34.6C216.1,184.6,214.3,183.4,212.3,183.3L212.3,183.3z M212.3,183.3"/>
	</g>
</g>
<g id="Layer_2">
</g>
</svg>
