<?xml version="1.0" encoding="utf-8"?>
<!-- Generator: Adobe Illustrator 17.1.0, SVG Export Plug-In . SVG Version: 6.00 Build 0)  -->
<!DOCTYPE svg PUBLIC "-//W3C//DTD SVG 1.1//EN" "http://www.w3.org/Graphics/SVG/1.1/DTD/svg11.dtd">
<svg version="1.1" xmlns="http://www.w3.org/2000/svg" xmlns:xlink="http://www.w3.org/1999/xlink" x="0px" y="0px"
	 viewBox="0 0 512 512" enable-background="new 0 0 512 512" xml:space="preserve">
<g id="Capa_1">
	<circle fill="#61A8DE" cx="256.4" cy="255.8" r="253.5"/>
	<g>
		<path fill="#FFFFFF" d="M407.9,110.2L88,234.9c-10.4,4-9.7,18.9,0.9,22.1l81.3,24l30.3,96.3c3.2,10.1,15.9,13.1,23.3,5.6l42-42.9
			l82.5,60.5c10.1,7.4,24.5,1.9,27-10.3L430,128.9C432.7,116.1,420.1,105.5,407.9,110.2L407.9,110.2z M367.8,168.1L219.2,299.6
			c-1.5,1.3-2.4,3.1-2.6,5.1l-5.7,50.9c-0.2,1.7-2.5,1.9-3,0.3l-23.5-75.9c-1.1-3.5,0.3-7.2,3.4-9.1L363.2,162
			C367.2,159.5,371.4,165,367.8,168.1L367.8,168.1z M367.8,168.1"/>
	</g>
</g>
<g id="Layer_2">
</g>
</svg>
